<svg viewBox="0 0 100 100" xmlns="http://www.w3.org/2000/svg" fill="#d97757">
  <!-- Speed dashes (left side) -->
  <rect x="4" y="22" width="20" height="8" rx="4"/>
  <rect x="0" y="38" width="20" height="8" rx="4"/>
  <rect x="6" y="54" width="16" height="8" rx="4"/>

  <!-- Map pin body -->
  <path d="
    M 32,22
    L 52,22
    C 76,22 92,34 92,54
    C 92,72 74,88 58,100
    L 50,92
    C 44,86 38,79 36,72
    C 68,66 80,56 80,54
    C 80,42 68,32 52,32
    L 28,32 Z
  "/>

  <!-- Arrow inside pin -->
  <polygon points="28,38 52,38 52,28 72,48 52,68 52,58 24,58"/>
</svg>
